<svg width="96" height="96" xmlns="http://www.w3.org/2000/svg" xmlns:xlink="http://www.w3.org/1999/xlink" xml:space="preserve" overflow="hidden"><g transform="translate(-768 -131)"><path d="M852 160 852 156.68C852.001 156.233 851.909 155.79 851.73 155.38L845.85 142 786.15 142 780.27 155.38C780.091 155.79 779.999 156.233 780 156.68L780 160C780 162.209 781.791 164 784 164L784 188 780 188 780 194 784 194 784 215 848 215 848 194 852 194 852 188 848 188 848 164C850.209 164 852 162.209 852 160ZM840.2 148 844 156 844 160C844 162.209 842.209 164 840 164 837.791 164 836 162.209 836 160L836 156 832.2 148ZM825.6 148 828 156 828 160C828 162.209 826.209 164 824 164 821.791 164 820 162.209 820 160L820 156 818.6 148ZM804 156 806.4 148 813.4 148 812 156 812 160C812 162.209 810.209 164 808 164 805.791 164 804 162.209 804 160ZM788 156 791.8 148 799.8 148 796 156 796 160C796 162.209 794.209 164 792 164 789.791 164 788 162.209 788 160ZM790 188 790 171 842 171 842 188Z" fill="#A9D18E"/></g></svg>